<svg width="14" height="14" viewBox="0 0 14 14" fill="none" xmlns="http://www.w3.org/2000/svg">
<path d="M1.74984 1.75H12.2498C12.4045 1.75 12.5529 1.81146 12.6623 1.92085C12.7717 2.03025 12.8332 2.17862 12.8332 2.33333V11.6667C12.8332 11.8214 12.7717 11.9697 12.6623 12.0791C12.5529 12.1885 12.4045 12.25 12.2498 12.25H1.74984C1.59513 12.25 1.44675 12.1885 1.33736 12.0791C1.22796 11.9697 1.1665 11.8214 1.1665 11.6667V2.33333C1.1665 2.17862 1.22796 2.03025 1.33736 1.92085C1.44675 1.81146 1.59513 1.75 1.74984 1.75ZM7.03484 6.81508L3.2945 3.63883L2.53909 4.52783L7.04242 8.35158L11.4647 4.52492L10.7017 3.64233L7.03542 6.81508H7.03484Z" fill="#FF7129"/>
</svg>
