<svg width="46" height="46" viewBox="0 0 46 46" fill="none" xmlns="http://www.w3.org/2000/svg">
<circle opacity="0.4" cx="23" cy="23" r="23" fill="#7B7E85"/>
<path d="M22.141 15C20.559 15 19.754 15.169 19.013 15.565C18.395 15.8901 17.8901 16.395 17.565 17.013C17.169 17.753 17 18.559 17 20.14V25.858C17 27.44 17.169 28.245 17.565 28.986C17.902 29.616 18.383 30.097 19.013 30.434C19.753 30.83 20.559 30.999 22.141 30.999H23.859C25.441 30.999 26.246 30.83 26.987 30.434C27.605 30.1089 28.1098 29.604 28.435 28.986C28.831 28.246 29 27.44 29 25.858V20.14C29 18.558 28.831 17.753 28.435 17.012C28.1098 16.394 27.605 15.8891 26.987 15.564C26.247 15.169 25.441 15 23.86 15H22.14H22.141ZM22.141 13H23.859C25.873 13 26.953 13.278 27.931 13.801C28.8973 14.3125 29.6875 15.1027 30.199 16.069C30.722 17.047 31 18.127 31 20.141V25.859C31 27.873 30.722 28.953 30.199 29.931C29.6875 30.8973 28.8973 31.6875 27.931 32.199C26.953 32.722 25.873 33 23.859 33H22.14C20.126 33 19.046 32.722 18.068 32.199C17.1017 31.6875 16.3115 30.8973 15.8 29.931C15.278 28.953 15 27.873 15 25.859V20.14C15 18.126 15.278 17.046 15.801 16.068C16.3129 15.1019 17.1035 14.3121 18.07 13.801C19.047 13.278 20.127 13 22.141 13ZM22 17H24V22H22V17Z" fill="white"/>
</svg>
